<svg width="200" height="200" viewBox="0 0 200 200" xmlns="http://www.w3.org/2000/svg">
  <defs>
    <radialGradient id="chaiBody" cx="35%" cy="20%" r="80%">
      <stop offset="0%" stop-color="#E8A85C"/>
      <stop offset="60%" stop-color="#D98C3D"/>
      <stop offset="100%" stop-color="#B06B24"/>
    </radialGradient>
    <linearGradient id="steamGrad2" x1="0" y1="1" x2="0" y2="0">
      <stop offset="0%" stop-color="#8FA898" stop-opacity="0"/>
      <stop offset="100%" stop-color="#C7DBCF" stop-opacity="0.9"/>
    </linearGradient>
    <filter id="ds2" x="-50%" y="-50%" width="200%" height="200%">
      <feDropShadow dx="0" dy="4" stdDeviation="5" flood-color="#000" flood-opacity="0.25"/>
    </filter>
  </defs>
  <circle cx="100" cy="100" r="94" fill="#FFFFFF" filter="url(#ds2)"/>
  <circle cx="100" cy="100" r="88" fill="#FBF6EA"/>

  <g transform="translate(100,117)">
    <path d="M -55 -35 L 55 -35 L 45 45 C 43 60, 25 68, 0 68 C -25 68, -43 60, -45 45 Z"
          fill="url(#chaiBody)" stroke="#2A1B10" stroke-width="6" stroke-linejoin="round"/>
    <ellipse cx="-14" cy="0" rx="10" ry="26" fill="#FFFFFF" opacity="0.2"/>
    <ellipse cx="0" cy="-35" rx="55" ry="12" fill="#F0C892" stroke="#2A1B10" stroke-width="6"/>
    <rect x="-72" y="42" width="144" height="16" rx="8" fill="#3C2A1E" stroke="#2A1B10" stroke-width="5"/>
    <path d="M -18 -60 C -26 -75, -10 -83, -14 -100 C -5 -92, 10 -88, 3 -73 C -1 -65, -10 -65, -18 -60 Z"
          fill="url(#steamGrad2)" stroke="#7C9A8B" stroke-width="3" stroke-linejoin="round"/>
  </g>
</svg>
