<svg width="200" height="200" viewBox="0 0 200 200" xmlns="http://www.w3.org/2000/svg">
  <defs>
    <radialGradient id="cupBody" cx="35%" cy="25%" r="80%">
      <stop offset="0%" stop-color="#8A6B4E"/>
      <stop offset="60%" stop-color="#6F4E37"/>
      <stop offset="100%" stop-color="#4E3524"/>
    </radialGradient>
    <linearGradient id="steamGrad" x1="0" y1="1" x2="0" y2="0">
      <stop offset="0%" stop-color="#8FA898" stop-opacity="0"/>
      <stop offset="100%" stop-color="#C7DBCF" stop-opacity="0.9"/>
    </linearGradient>
    <filter id="dropShadow" x="-50%" y="-50%" width="200%" height="200%">
      <feDropShadow dx="0" dy="4" stdDeviation="5" flood-color="#000" flood-opacity="0.25"/>
    </filter>
  </defs>

  <!-- die-cut white sticker border -->
  <circle cx="100" cy="100" r="94" fill="#FFFFFF" filter="url(#dropShadow)"/>
  <circle cx="100" cy="100" r="94" fill="none" stroke="#FFFFFF" stroke-width="10"/>
  <circle cx="100" cy="100" r="88" fill="#FBF6EA"/>

  <g transform="translate(100,112)">
    <path d="M -60 5 C -60 50, -30 82, 0 82 C 30 82, 60 50, 60 5 L 60 -30 L -60 -30 Z"
          fill="url(#cupBody)" stroke="#2A1B10" stroke-width="6" stroke-linejoin="round"/>
    <ellipse cx="-18" cy="-8" rx="14" ry="26" fill="#FFFFFF" opacity="0.18"/>
    <rect x="-68" y="-44" width="136" height="18" rx="9" fill="#4A3324" stroke="#2A1B10" stroke-width="6"/>
    <path d="M 58 -20 C 85 -20, 98 -5, 98 8 C 98 22, 85 33, 65 33 L 65 12 C 76 12, 80 8, 80 2 C 80 -4, 76 -8, 58 -8 Z"
          fill="url(#cupBody)" stroke="#2A1B10" stroke-width="5" stroke-linejoin="round"/>

    <path d="M -20 -55 C -28 -70, -12 -78, -16 -95 C -7 -87, 8 -83, 1 -68 C -3 -60, -12 -60, -20 -55 Z"
          fill="url(#steamGrad)" stroke="#7C9A8B" stroke-width="3" stroke-linejoin="round"/>
    <path d="M 14 -52 C 6 -68, 22 -76, 18 -93 C 27 -85, 42 -80, 34 -65 C 30 -57, 21 -57, 14 -52 Z"
          fill="url(#steamGrad)" stroke="#7C9A8B" stroke-width="3" stroke-linejoin="round"/>
  </g>
</svg>
