<svg width="200" height="200" viewBox="0 0 200 200" xmlns="http://www.w3.org/2000/svg">
  <defs>
    <linearGradient id="hullGrad" x1="0" y1="0" x2="0" y2="1">
      <stop offset="0%" stop-color="#8A6B4E"/>
      <stop offset="100%" stop-color="#4E3524"/>
    </linearGradient>
    <linearGradient id="sailGrad" x1="0" y1="0" x2="1" y2="0">
      <stop offset="0%" stop-color="#FFFFFF"/>
      <stop offset="100%" stop-color="#E8DCC0"/>
    </linearGradient>
    <linearGradient id="waterGrad" x1="0" y1="0" x2="0" y2="1">
      <stop offset="0%" stop-color="#A8C4B8"/>
      <stop offset="100%" stop-color="#7C9A8B"/>
    </linearGradient>
    <filter id="ds9" x="-50%" y="-50%" width="200%" height="200%">
      <feDropShadow dx="0" dy="4" stdDeviation="5" flood-color="#000" flood-opacity="0.25"/>
    </filter>
  </defs>
  <circle cx="100" cy="100" r="94" fill="#FFFFFF" filter="url(#ds9)"/>
  <circle cx="100" cy="100" r="88" fill="#F3E7D3"/>

  <g transform="translate(100,122)">
    <path d="M -70 20 Q 0 55, 70 20 L 55 45 Q 0 65, -55 45 Z" fill="url(#hullGrad)" stroke="#2A1B10" stroke-width="6" stroke-linejoin="round"/>
    <path d="M 0 20 L 0 -60 L 45 -10 Z" fill="url(#sailGrad)" stroke="#2A1B10" stroke-width="5" stroke-linejoin="round"/>
    <path d="M 0 20 L 0 -60" stroke="#2A1B10" stroke-width="5"/>
    <path d="M -70 55 Q 0 70, 70 55 L 70 65 Q 0 80, -70 65 Z" fill="url(#waterGrad)" opacity="0.7"/>
  </g>
</svg>
